# xmcd CD database file
#
# Track frame offsets:
#	150
#	23540
#	44605
#	67997
#	100207
#
# Disc length: 1684 seconds
#
# Revision: 0
# Processed by: cddbd v1.5.1PL0 Copyright (c) Steve Scherf et al.
# Submitted via: CDex 1.51
#
DISCID=37069205
DTITLE=マニ☆ラバ - 青森駅
DYEAR=2005
DGENRE=J-Pop
TTITLE0=青森駅
TTITLE1=友よ
TTITLE2=青森駅（カラオケ）
TTITLE3=友よ（カラオケ）
TTITLE4=データ
EXTD=YEAR: 2005
EXTT0=
EXTT1=
EXTT2=
EXTT3=
EXTT4=
PLAYORDER=
